<svg xmlns="http://www.w3.org/2000/svg" xmlns:xlink="http://www.w3.org/1999/xlink" id="Capa_1" x="0" y="0" enable-background="new 0 0 511.997 511.997" version="1.1" viewBox="0 0 511.997 511.997" xml:space="preserve"><polygon fill="#FFDB0C" points="461.546 358.494 488.623 181.47 418.964 252.289 399.536 128.762 310.874 235.145 256 82.009 201.126 235.145 112.464 128.762 93.036 252.289 23.377 181.47 50.454 358.494 50.454 405.928 461.546 405.928"/><polygon fill="#FBBF00" points="461.546 358.494 488.623 181.47 418.964 252.289 399.536 128.762 310.874 235.145 256 82.009 256 405.928 461.546 405.928"/><rect width="411.09" height="94.87" x="50.45" y="358.497" fill="#FFA900"/><g><rect width="205.55" height="94.87" x="256" y="358.497" fill="#F80"/><circle cx="23.377" cy="181.467" r="23.377" fill="#F80"/></g><circle cx="112.46" cy="128.757" r="23.377" fill="#FF421D"/><circle cx="256" cy="82.007" r="23.377" fill="#DE0418"/><circle cx="488.62" cy="181.467" r="23.377" fill="#870215"/><circle cx="399.54" cy="128.757" r="23.377" fill="#A3021A"/></svg>